<svg width="293" height="54" viewBox="0 0 293 54" fill="none" xmlns="http://www.w3.org/2000/svg">
<path d="M106.52 45.7208H92.6078L82.9618 30.9051H71.0898V19.5133H82.8381L92.917 4.01299H106.83L92.4841 24.4933L106.52 45.7208ZM74.4906 45.7208H62.8659V4.01299H74.4906V45.7208Z" fill="white"/>
<path d="M118.667 45.7208H105.62L123.49 4.01299H140.123L158.055 45.7208H144.699L134.868 21.6298L132.147 14.5956H131.343L128.684 21.6298L118.667 45.7208ZM146.74 38.0017H116.194V27.4814H146.74V38.0017Z" fill="white"/>
<path d="M179.395 46.3432C175.191 46.3432 171.563 45.8245 168.513 44.787C165.462 43.708 163.113 42.0687 161.464 39.8692C159.815 37.6282 158.99 34.7438 158.99 31.2163V30.8428H170.615V32.1501C170.615 33.0631 170.801 33.7894 171.172 34.3289C171.584 34.8269 172.408 35.1797 173.645 35.3872C174.882 35.5947 176.798 35.6984 179.395 35.6984C181.745 35.6984 183.476 35.6362 184.589 35.5117C185.702 35.3457 186.403 35.0966 186.692 34.7646C187.022 34.3911 187.187 33.8932 187.187 33.2707C187.187 32.5237 186.898 31.9634 186.321 31.5899C185.785 31.2164 184.672 30.9258 182.982 30.7183L169.997 28.9754C167.441 28.6019 165.297 27.9172 163.566 26.9212C161.835 25.8837 160.536 24.5349 159.671 22.8749C158.805 21.2149 158.372 19.2643 158.372 17.0233C158.372 15.3633 158.722 13.7241 159.423 12.1056C160.124 10.4871 161.258 9.03454 162.824 7.74804C164.391 6.42003 166.452 5.36182 169.007 4.57332C171.563 3.78482 174.717 3.39052 178.468 3.39052C182.879 3.39052 186.506 4.01293 189.351 5.25794C192.236 6.46144 194.38 8.20451 195.781 10.487C197.224 12.728 197.946 15.4048 197.946 18.5173V18.8908H186.321V17.957C186.321 16.961 186.094 16.1725 185.641 15.5915C185.228 15.0105 184.363 14.5956 183.044 14.3466C181.766 14.0976 179.828 13.9731 177.231 13.9731C175.253 13.9731 173.748 14.0768 172.717 14.2843C171.687 14.4503 170.966 14.72 170.553 15.0935C170.182 15.467 169.997 15.9651 169.997 16.5876C169.997 17.0026 170.079 17.376 170.244 17.708C170.45 17.9985 170.759 18.2269 171.172 18.3929C171.625 18.5589 172.223 18.7041 172.965 18.8286L185.95 20.7584C189.33 21.2564 191.948 22.1278 193.803 23.3728C195.658 24.5764 196.956 26.0081 197.698 27.6681C198.44 29.3281 198.811 31.0505 198.811 32.835C198.811 35.2005 198.152 37.4207 196.833 39.4957C195.555 41.5293 193.494 43.1892 190.649 44.4757C187.805 45.7207 184.054 46.3432 179.395 46.3432Z" fill="white"/>
<path d="M245.223 45.7208H231.31L221.664 30.9051H209.792V19.5133H221.541L231.62 4.01299H245.532L231.187 24.4933L245.223 45.7208ZM213.193 45.7208H201.569V4.01299H213.193V45.7208Z" fill="white"/>
<path d="M268.253 45.7208H256.628V17.0857H245.56V9.17973H247.106C249.373 9.17973 251.372 8.84778 253.103 8.18377C254.835 7.51977 256.278 6.1295 257.432 4.01299H268.253V45.7208Z" fill="white"/>
<path d="M293 54H270.74V45.7208H293V54Z" fill="white"/>
<path d="M38.2492 23.7838C31.6382 23.1425 26.4071 17.8786 25.7708 11.2287L24.6973 0L23.6238 11.2287C22.9875 17.8797 17.7564 23.1437 11.1454 23.7838L0 24.8638L11.1454 25.9438C17.7564 26.5851 22.9875 31.849 23.6238 38.4989L24.6973 49.7276L25.7708 38.4989C26.4071 31.8478 31.6382 26.5839 38.2492 25.9438L49.3946 24.8638L38.2492 23.7838Z" fill="white"/>
</svg>
